<?xml version="1.0" standalone="no"?>
<!DOCTYPE svg PUBLIC "-//W3C//DTD SVG 20010904//EN"
 "http://www.w3.org/TR/2001/REC-SVG-20010904/DTD/svg10.dtd">
<svg version="1.0" xmlns="http://www.w3.org/2000/svg"
 width="1024.000000pt" height="1024.000000pt" viewBox="0 0 1024.000000 1024.000000"
 preserveAspectRatio="xMidYMid meet">

<g transform="translate(0.000000,1024.000000) scale(0.100000,-0.100000)"
fill="#FF0000" stroke="none">
<path d="M3535 7253 c-394 -11 -781 -25 -940 -33 -668 -35 -720 -40 -865 -86
-291 -91 -469 -277 -555 -577 -46 -162 -89 -543 -105 -927 -10 -244 -3 -1089
10 -1260 12 -153 64 -566 86 -683 57 -298 207 -514 442 -635 146 -75 227 -94
532 -122 353 -32 545 -42 1365 -71 378 -14 2733 -20 3075 -9 140 5 413 14 605
20 329 10 619 26 920 50 312 25 496 96 662 254 149 141 231 304 277 554 21
113 54 430 66 637 12 213 12 1245 0 1420 -39 568 -59 722 -110 854 -46 117
-98 198 -185 287 -91 92 -179 147 -307 192 -146 52 -226 61 -793 92 -800 44
-1161 50 -2665 48 -784 -1 -1465 -3 -1515 -5z m1830 -626 c184 -43 351 -171
428 -330 65 -133 80 -208 80 -392 1 -146 -2 -168 -27 -250 -38 -123 -79 -198
-158 -280 -109 -115 -227 -174 -393 -194 -50 -6 -222 -11 -382 -11 l-293 0 0
733 c0 404 3 737 8 741 4 4 156 6 337 3 256 -3 346 -8 400 -20z m1320 -382
c84 -22 150 -61 206 -123 93 -101 128 -199 136 -379 l6 -123 -372 0 -373 0 7
-32 c18 -84 73 -161 139 -195 41 -21 150 -28 206 -13 43 12 109 67 136 115 11
19 15 18 118 -32 58 -29 106 -58 106 -64 0 -18 -56 -93 -103 -136 -88 -81
-192 -117 -342 -117 -196 0 -352 77 -448 221 -62 93 -88 176 -95 294 -11 214
78 411 230 512 51 33 147 72 198 80 62 10 191 6 245 -8z m684 -117 c66 -233
205 -693 210 -700 4 -4 63 176 132 400 l126 407 137 3 138 3 -6 -24 c-9 -39
-327 -1041 -332 -1049 -3 -5 -90 -8 -195 -8 -141 0 -189 3 -189 12 0 7 -76
247 -170 535 -93 287 -170 525 -170 528 0 3 65 5 143 5 l144 0 32 -112z
m-4869 -71 c41 -23 165 -106 275 -183 110 -77 380 -264 599 -415 334 -229 404
-281 428 -319 35 -54 34 -103 -5 -153 -13 -18 -118 -93 -232 -167 -113 -74
-410 -270 -658 -434 -249 -164 -467 -305 -486 -313 -56 -24 -145 9 -169 62 -9
19 -12 266 -12 955 l0 928 27 32 c32 39 55 49 113 49 36 1 61 -8 120 -42z
m4179 -1161 c9 -11 11 -83 9 -268 l-3 -253 50 51 c72 73 141 97 260 92 109 -5
168 -31 244 -109 99 -101 151 -248 151 -435 0 -323 -185 -554 -444 -554 -85 0
-152 27 -219 89 l-44 41 5 -49 4 -48 -136 -7 c-74 -4 -140 -5 -146 -1 -12 7
-14 1423 -2 1442 5 7 39 13 87 16 44 1 101 4 126 5 30 1 51 -3 58 -12z m-1329
-156 l0 -120 -205 0 -205 0 0 -595 0 -595 -145 0 -145 0 0 596 0 596 -195 -4
-195 -3 0 117 0 118 183 3 c100 1 345 3 545 5 l362 2 0 -120z m2755 -216 c147
-38 248 -142 301 -309 20 -64 26 -103 27 -195 l2 -115 -341 -5 -341 -5 13 -46
c20 -66 72 -140 119 -166 112 -63 245 -27 316 86 l15 24 93 -48 c51 -26 95
-54 98 -61 2 -6 -7 -31 -22 -53 -151 -240 -524 -271 -733 -62 -167 168 -203
481 -82 722 96 190 323 289 535 233z m-2540 -47 c4 -17 5 -183 3 -367 -3 -370
-4 -368 61 -423 63 -53 176 -42 240 22 61 61 64 79 70 456 l6 340 124 3 c82 2
128 -1 137 -9 12 -9 14 -100 14 -535 l0 -525 -142 3 -143 3 0 52 c0 29 -2 53
-5 53 -3 0 -21 -17 -40 -37 -19 -20 -60 -48 -90 -62 -48 -23 -68 -26 -160 -26
-87 0 -113 4 -152 22 -57 26 -131 93 -163 148 -49 82 -55 140 -55 537 l0 367
28 4 c15 2 80 5 144 6 l117 1 6 -33z"/>
<path d="M4930 5908 l0 -468 135 0 c216 0 305 29 398 130 150 162 154 475 10
669 -35 46 -132 106 -196 122 -28 7 -118 13 -199 13 l-148 1 0 -467z"/>
<path d="M6435 6021 c-65 -29 -135 -124 -135 -182 0 -18 12 -19 225 -19 l225
0 0 23 c0 35 -45 122 -76 146 -68 53 -164 66 -239 32z"/>
<path d="M6811 4269 c-44 -17 -81 -51 -101 -89 -18 -35 -20 -60 -20 -234 l0
-195 30 -35 c87 -99 241 -87 330 25 54 69 75 136 74 239 0 75 -4 92 -31 145
-37 72 -96 132 -144 145 -42 12 -106 12 -138 -1z"/>
<path d="M7922 4315 c-62 -19 -106 -57 -136 -117 -49 -98 -57 -93 184 -93
l210 0 0 30 c-1 72 -63 153 -139 180 -51 18 -62 18 -119 0z"/>
</g>
</svg>
